<svg id="Layer_1" enable-background="new 0 0 128 128" height="512" viewBox="0 0 128 128" width="512" xmlns="http://www.w3.org/2000/svg"><path d="m118.447 38.826h-4.093v-2.358c0-1.654-1.346-3-3-3h-7.965v-12.623c0-4.717-3.838-8.555-8.555-8.555h-24.434c-4.718 0-8.556 3.838-8.556 8.555v7.976h-19.936c-3.309 0-6.179 1.891-7.601 4.646h-13.661c-1.654 0-3 1.346-3 3v2.358h-4.093c-1.654 0-3 1.346-3 3v69.401c0 1.654 1.346 3 3 3h35.445c5.028 0 9.861 1.32 13.979 3.818l2.505 1.519c.159.097.339.145.519.145.173 0 .345-.044.5-.134l3.117-1.801c4.017-2.321 8.692-3.547 13.521-3.547h35.308c1.654 0 3-1.346 3-3v-69.4c0-1.654-1.346-3-3-3z" fill="#e6e7e8"/><path d="m114.447 35.826h-5.093v66.043c0 1.105-.895 2-2 2h-30.448c-4.339 0-8.581 1.281-12.195 3.682l-2.711 1.8-2.178-1.52c-3.698-2.58-8.099-3.963-12.609-3.963h-30.567c-1.105 0-2-.895-2-2v-66.042h-5.093c-1.105 0-2 .895-2 2v69.402c0 1.105.895 2 2 2h35.445c5.185 0 10.245 1.383 14.497 3.963l2.505 1.519 3.117-1.801c4.155-2.401 9.033-3.682 14.022-3.682h35.308c1.105 0 2-.895 2-2v-69.401c0-1.105-.895-2-2-2z" fill="#ffd7e5"/><path d="m107.354 30.467h-8.965v.699c0 4.173-3.383 7.555-7.555 7.555h-4.958v8.146l-8.483-8.146h-7.495v8.975c0 4.173-3.383 7.555-7.555 7.555h-10.993l-8.483 8.146v-8.146h-4.958c-4.172 0-7.555-3.383-7.555-7.555v-14.32c0-1.031.208-2.013.582-2.909h-14.29c-1.105 0-2 .895-2 2v69.402c0 1.105.895 2 2 2h30.567c4.509 0 8.91 1.383 12.609 3.963l2.178 1.52 2.711-1.801c3.614-2.401 7.856-3.682 12.195-3.682h30.448c1.105 0 2-.895 2-2v-69.402c0-1.104-.895-2-2-2z" fill="#fa759e"/><path d="m107.354 30.467h-8.965v.699c0 .803-.128 1.575-.36 2.301h9.325c1.105 0 2 .895 2 2v-3c0-1.104-.895-2-2-2z" fill="#fff"/><path d="m30.353 33.376c0-1.031.208-2.013.582-2.909h-14.289c-1.105 0-2 .895-2 2v3c0-1.105.895-2 2-2h13.707z" fill="#fff"/><path d="m66.4 9.29h24.435c4.172 0 7.555 3.383 7.555 7.555v14.321c0 4.173-3.383 7.555-7.555 7.555h-4.958v8.146l-8.483-8.146h-10.994c-4.173 0-7.555-3.383-7.555-7.555v-14.321c-.001-4.172 3.382-7.555 7.555-7.555z" fill="#6dc9f7"/><path d="m62.343 25.821h-24.435c-4.172 0-7.555 3.383-7.555 7.555v14.321c0 4.173 3.383 7.555 7.555 7.555h4.958v8.146l8.483-8.146h10.993c4.173 0 7.555-3.383 7.555-7.555v-14.321c.001-4.173-3.382-7.555-7.554-7.555z" fill="#d4fbff"/><g fill="#3a2c60"><path d="m114.447 34.826h-4.093v-2.358c0-1.654-1.346-3-3-3h-7.965v-12.623c0-4.717-3.838-8.555-8.555-8.555h-24.434c-4.718 0-8.556 3.838-8.556 8.555v7.976h-19.936c-3.309 0-6.179 1.891-7.601 4.646h-13.661c-1.654 0-3 1.346-3 3v2.358h-4.093c-1.654 0-3 1.346-3 3v69.401c0 1.654 1.346 3 3 3h35.445c5.028 0 9.861 1.32 13.979 3.818l2.505 1.519c.159.097.339.145.519.145.173 0 .345-.044.5-.134l3.117-1.801c4.017-2.321 8.692-3.547 13.521-3.547h35.308c1.654 0 3-1.346 3-3v-69.4c0-1.654-1.346-3-3-3zm-54.603-17.981c0-3.615 2.941-6.555 6.556-6.555h24.435c3.614 0 6.555 2.94 6.555 6.555v14.321c0 3.615-2.94 6.555-6.555 6.555h-4.959c-.553 0-1 .448-1 1v5.8l-6.792-6.521c-.186-.179-.435-.279-.692-.279h-6.494v-4.346c0-4.717-3.838-8.555-8.555-8.555h-2.499zm-21.936 9.976h24.435c3.615 0 6.555 2.94 6.555 6.555v14.321c0 3.615-2.94 6.555-6.555 6.555h-10.993c-.258 0-.506.1-.693.279l-6.791 6.521v-5.8c0-.552-.448-1-1-1h-4.958c-3.615 0-6.555-2.94-6.555-6.555v-14.321c0-3.615 2.94-6.555 6.555-6.555zm-22.262 5.647c0-.551.449-1 1-1h12.929c-.141.615-.222 1.252-.222 1.908v4.353h-5.893c-.552 0-1 .448-1 1s.448 1 1 1h5.893v7.968c0 .349.027.691.068 1.029h-5.961c-.552 0-1 .448-1 1s.448 1 1 1h6.457c1.227 3.224 4.341 5.526 7.991 5.526h3.958v3.471h-18.406c-.552 0-1 .448-1 1s.448 1 1 1h18.406v1.676c0 .401.239.763.608.92.126.054.26.08.392.08.253 0 .502-.096.693-.279l8.193-7.868h9.248v51.183l-.606-.423c-3.886-2.71-8.443-4.143-13.181-4.143h-30.567c-.551 0-1-.449-1-1zm29.353 75.759h-35.446c-.551 0-1-.449-1-1v-69.401c0-.551.449-1 1-1h4.093v65.043c0 1.654 1.346 3 3 3h30.567c4.326 0 8.488 1.308 12.036 3.783l1.751 1.221v3.06l-.986-.598c-4.43-2.687-9.622-4.108-15.015-4.108zm70.448-1c0 .551-.448 1-1 1h-35.308c-5.18 0-10.201 1.319-14.522 3.816l-1.617.934v-3.089l2.264-1.504c3.462-2.299 7.487-3.515 11.643-3.515h30.447c1.654 0 3-1.346 3-3v-21.942c0-.552-.447-1-1-1s-1 .448-1 1v21.942c0 .551-.448 1-1 1h-30.447c-4.55 0-8.958 1.331-12.749 3.849l-1.158.768v-51.268c4.41-.338 7.897-4.027 7.897-8.522v-7.975h6.092l8.193 7.868c.189.183.439.279.692.279.133 0 .266-.026.392-.08.369-.157.608-.519.608-.92v-7.139h13.89c.553 0 1-.448 1-1s-.447-1-1-1h-4.452c1.805-1.51 2.973-3.75 3.061-6.261h7.98c.552 0 1 .449 1 1v30.07c0 .552.447 1 1 1s1-.448 1-1v-25.712h4.093c.552 0 1 .449 1 1v69.401z"/><path d="m109.354 65.909c-.553 0-1 .448-1 1v8.358c0 .552.447 1 1 1s1-.448 1-1v-8.358c0-.552-.447-1-1-1z"/><path d="m23.46 72.719h21.875c.552 0 1-.448 1-1s-.448-1-1-1h-21.875c-.552 0-1 .448-1 1s.448 1 1 1z"/><path d="m23.46 83.716h21.875c.552 0 1-.448 1-1s-.448-1-1-1h-21.875c-.552 0-1 .448-1 1s.448 1 1 1z"/><path d="m23.46 94.713h21.875c.552 0 1-.448 1-1s-.448-1-1-1h-21.875c-.552 0-1 .448-1 1s.448 1 1 1z"/><path d="m100.765 48.726h-21.876c-.553 0-1 .448-1 1s.447 1 1 1h21.876c.553 0 1-.448 1-1s-.447-1-1-1z"/><path d="m100.765 59.722h-21.876c-.553 0-1 .448-1 1s.447 1 1 1h21.876c.553 0 1-.448 1-1s-.447-1-1-1z"/><path d="m100.765 70.719h-21.876c-.553 0-1 .448-1 1s.447 1 1 1h21.876c.553 0 1-.448 1-1s-.447-1-1-1z"/><path d="m100.765 81.716h-21.876c-.553 0-1 .448-1 1s.447 1 1 1h21.876c.553 0 1-.448 1-1s-.447-1-1-1z"/><path d="m100.765 92.713h-21.876c-.553 0-1 .448-1 1s.447 1 1 1h21.876c.553 0 1-.448 1-1s-.447-1-1-1z"/><path d="m69.659 17.721h12.445c-.128 2.426-1.399 5.796-3.507 8.838-1.456-2.116-2.497-4.396-3.049-6.44-.145-.533-.691-.845-1.227-.705-.533.144-.849.693-.705 1.226.649 2.404 1.919 5.107 3.714 7.571-1.581 1.885-3.492 3.53-5.665 4.564-.499.237-.711.834-.474 1.333.172.36.53.57.904.57.144 0 .29-.031.429-.097 2.369-1.127 4.417-2.812 6.106-4.743 1.691 1.937 3.729 3.626 6.078 4.743.139.066.285.097.429.097.374 0 .732-.21.904-.57.237-.499.025-1.096-.474-1.333-2.208-1.051-4.116-2.668-5.68-4.523 2.6-3.551 4.081-7.598 4.213-10.533h3.473c.553 0 1-.448 1-1s-.447-1-1-1h-7.958v-1.622c0-.552-.447-1-1-1s-1 .448-1 1v1.622h-7.958c-.553 0-1 .448-1 1s.449 1.002 1.002 1.002z"/><path d="m43.863 48.546c.491 0 .843-.143 1.059-.429.215-.286.476-.838.78-1.655l.78-2.096h6.644l.78 2.051c.104.253.229.545.373.875.145.331.281.576.407.735.126.16.282.286.468.379s.409.14.669.14c.446 0 .827-.158 1.143-.474s.474-.664.474-1.042c0-.364-.167-.947-.501-1.75l-4.269-10.545c-.201-.527-.366-.949-.496-1.265s-.29-.611-.479-.886-.438-.5-.747-.674-.693-.262-1.154-.262c-.454 0-.834.087-1.143.262s-.557.403-.747.686-.368.637-.535 1.064c-.167.428-.311.793-.429 1.098l-4.18 10.612c-.171.423-.293.754-.368.992-.074.238-.111.468-.111.691 0 .386.16.732.479 1.037s.687.456 1.103.456zm5.907-13.41 2.463 6.744h-4.882z"/></g></svg>